Coordinates
version=1
nRows=34
nColumns=38
inDegrees=no

Units are S.I. units (second, meters, Newtons, ...)
If the header above contains a line with 'inDegrees', this indicates whether rotational values are in degrees (yes) or radians (no).

endheader
time	pelvis_tilt	pelvis_list	pelvis_rotation	pelvis_tx	pelvis_ty	pelvis_tz	hip_flexion_r	hip_adduction_r	hip_rotation_r	knee_angle_r	ankle_angle_r	subtalar_angle_r	mtp_angle_r	hip_flexion_l	hip_adduction_l	hip_rotation_l	knee_angle_l	ankle_angle_l	subtalar_angle_l	mtp_angle_l	lumbar_extension	lumbar_bending	lumbar_rotation	arm_flex_r	arm_add_r	arm_rot_r	elbow_flex_r	pro_sup_r	wrist_flex_r	wrist_dev_r	arm_flex_l	arm_add_l	arm_rot_l	elbow_flex_l	pro_sup_l	wrist_flex_l	wrist_dev_l
0	-1.28272	1.2361	2.67664	0.914031	-1.0892	0.962478	0.440896	-0.556693	0.27582	1.25911	-0.19865	0	0	0.496987	0.216989	-0.31893	0.293734	-0.184853	0	0	-0.0717236	-0.388399	0.177232	0.439596	-0.544676	1.465	0.863029	0.421554	0	0	-0.193763	-0.464853	0.204243	1.01078	1.07332	0	0
0.01	-1.26384	1.23838	2.66169	0.910209	-1.07753	0.96165	0.455179	-0.555536	0.279956	1.28582	-0.247175	0	0	0.495189	0.221451	-0.287163	0.292968	-0.198108	0	0	-0.0817761	-0.390157	0.208565	0.356759	-0.578427	1.3025	0.895117	0.508926	0	0	-0.161858	-0.468348	0.24044	1.01543	1.07797	0	0
0.02	-1.38781	1.19863	2.75407	0.91591	-1.06295	0.966491	0.414586	-0.569711	0.22973	1.33609	-0.191242	0	0	0.45116	0.25738	-0.387212	0.266324	-0.259388	0	0	-0.0755273	-0.453172	0.252686	0.330308	-0.550061	1.2759	0.865867	0.523218	0	0	-0.137604	-0.502883	0.302912	0.999633	1.03424	0	0
0.03	-1.29529	1.24447	2.71642	0.901577	-1.04985	0.968123	0.37875	-0.539283	0.149912	1.32319	-0.245524	0	0	0.475501	0.2305	-0.296301	0.331831	-0.230981	0	0	-0.118055	-0.393393	0.302421	0.112969	-0.611156	0.89663	0.948741	0.714324	0	0	-0.0145623	-0.478696	0.448106	0.954398	1.03563	0	0
0.04	-1.31593	1.24603	2.73598	0.89895	-1.03751	0.969896	0.381572	-0.542091	0.16062	1.33427	-0.293483	0	0	0.456575	0.238007	-0.281348	0.326454	-0.238603	0	0	-0.124072	-0.394434	0.312238	0.0930673	-0.609422	0.866691	0.948329	0.729989	0	0	-0.00189209	-0.478355	0.470993	0.947274	1.02691	0	0
0.05	-1.31455	1.23935	2.74158	0.896252	-1.02607	0.971313	0.4062	-0.551128	0.177825	1.37932	-0.342557	0	0	0.469103	0.236819	-0.27637	0.375919	-0.234226	0	0	-0.122905	-0.402443	0.314114	0.0764135	-0.600204	0.839298	0.942135	0.743986	0	0	0.0119627	-0.484886	0.497033	0.94239	1.01432	0	0
0.06	-1.33235	1.24447	2.76083	0.892706	-1.0136	0.973832	0.399814	-0.549898	0.180634	1.36593	-0.39621	0	0	0.429022	0.255907	-0.245067	0.32257	-0.24554	0	0	-0.130611	-0.39778	0.318954	0.0630898	-0.599943	0.820506	0.939465	0.75433	0	0	0.0211406	-0.480946	0.51395	0.934178	1.00784	0	0
0.07	-1.3392	1.24373	2.77179	0.889416	-1.002	0.975718	0.412794	-0.552706	0.199919	1.39148	-0.436953	0	0	0.418501	0.263272	-0.245351	0.329347	-0.242474	0	0	-0.133862	-0.398788	0.318911	0.0549619	-0.596846	0.80789	0.935534	0.761349	0	0	0.0280405	-0.481398	0.527283	0.930776	1.00478	0	0
0.08	-1.347	1.2459	2.78306	0.886199	-0.990413	0.978057	0.42597	-0.548829	0.20688	1.4055	-0.48895	0	0	0.403411	0.268494	-0.249235	0.330712	-0.239427	0	0	-0.131192	-0.395249	0.268046	0.14141	-0.586942	0.950348	0.897295	0.700592	0	0	-0.0330023	-0.478224	0.440818	0.948611	1.03183	0	0
0.09	-0.874641	1.33059	2.44601	0.868504	-0.967134	0.986672	0.340578	-0.416459	0.0303152	1.29396	-0.528975	0	0	0.460222	0.184015	-0.0722347	0.380516	-0.216622	0	0	-0.067656	-0.234994	0.171243	0.0945641	-0.527005	0.90258	0.782016	0.776916	0	0	-0.035714	-0.418385	0.442773	0.827079	1.06604	0	0
0.1	-0.885617	1.33433	2.4578	0.865591	-0.956448	0.988827	0.358303	-0.413673	0.0473008	1.32096	-0.570082	0	0	0.444178	0.186635	-0.0859036	0.3828	-0.209508	0	0	-0.0728309	-0.232773	0.171393	0.0957747	-0.527714	0.904624	0.77886	0.774357	0	0	-0.0300922	-0.417901	0.453112	0.823576	1.06139	0	0
0.11	-0.892128	1.33797	2.46549	0.862685	-0.945764	0.990098	0.388933	-0.412105	0.0608139	1.36719	-0.607248	0	0	0.439022	0.183597	-0.124916	0.408461	-0.199465	0	0	-0.0774886	-0.230103	0.170957	0.0936408	-0.530256	0.899861	0.781453	0.780173	0	0	-0.0284769	-0.418023	0.456249	0.82586	1.06427	0	0
0.12	-0.893576	1.34447	2.46852	0.859931	-0.935477	0.992421	0.396398	-0.398384	0.0814824	1.3757	-0.63213	0	0	0.420409	0.182859	-0.13113	0.405361	-0.193629	0	0	-0.0835816	-0.224025	0.168611	0.0981651	-0.531431	0.905632	0.778122	0.775759	0	0	-0.0238389	-0.416217	0.462115	0.821861	1.06236	0	0
0.13	-0.892365	1.34846	2.46856	0.857363	-0.925275	0.994053	0.417801	-0.387421	0.0997107	1.40069	-0.649663	0	0	0.404466	0.183171	-0.135306	0.4022	-0.187707	0	0	-0.086388	-0.220055	0.167106	0.101214	-0.53288	0.910445	0.776963	0.770991	0	0	-0.02039	-0.416551	0.468657	0.82045	1.0588	0	0
0.14	-0.885894	1.35179	2.46226	0.854979	-0.915147	0.995465	0.43997	-0.373954	0.121773	1.42312	-0.650336	0	0	0.390184	0.182106	-0.139232	0.398832	-0.182071	0	0	-0.0872193	-0.215966	0.166553	0.104202	-0.534211	0.915606	0.775801	0.767867	0	0	-0.017456	-0.41716	0.47495	0.81933	1.05452	0	0
0.15	-0.877766	1.35538	2.45588	0.852679	-0.905249	0.996915	0.461715	-0.358406	0.139086	1.44554	-0.637247	0	0	0.376672	0.180401	-0.140328	0.396003	-0.17771	0	0	-0.0885403	-0.211512	0.164187	0.107917	-0.534833	0.920757	0.774365	0.765835	0	0	-0.0140233	-0.418968	0.482203	0.819152	1.04887	0	0
0.16	-0.869634	1.35807	2.45026	0.850535	-0.895455	0.998304	0.483934	-0.343131	0.155391	1.46638	-0.614569	0	0	0.364074	0.179088	-0.14105	0.393537	-0.174408	0	0	-0.0892495	-0.208195	0.160815	0.11159	-0.534302	0.925245	0.772474	0.763569	0	0	-0.0108525	-0.422051	0.489556	0.819841	1.04179	0	0
0.17	-0.861537	1.36057	2.44427	0.848643	-0.885774	0.999673	0.506949	-0.326994	0.170747	1.48479	-0.569919	0	0	0.352009	0.177432	-0.143241	0.392425	-0.170679	0	0	-0.0897346	-0.205297	0.157685	0.115551	-0.533263	0.930087	0.770304	0.759661	0	0	-0.00709004	-0.425549	0.498296	0.820213	1.03408	0	0
0.18	-0.856083	1.363	2.43997	0.847024	-0.876129	1.00105	0.529957	-0.310599	0.188089	1.49896	-0.54214	0	0	0.338722	0.176164	-0.145823	0.390515	-0.166303	0	0	-0.0932416	-0.203276	0.171815	0.0907857	-0.533561	0.878175	0.77847	0.791478	0	0	0.0173688	-0.430918	0.542275	0.814442	1.00927	0	0
0.19	-0.851213	1.36499	2.43576	0.845458	-0.86643	1.00236	0.553063	-0.294967	0.204248	1.50854	-0.515671	0	0	0.324034	0.175614	-0.149294	0.385667	-0.163173	0	0	-0.089721	-0.200703	0.157004	0.120643	-0.530769	0.937124	0.765325	0.749268	0	0	0.00590455	-0.434432	0.530311	0.817999	1.0042	0	0
0.2	-0.844071	1.36664	2.42945	0.843903	-0.856744	1.00359	0.575468	-0.279876	0.217968	1.51459	-0.486969	0	0	0.309321	0.174851	-0.155167	0.379433	-0.161052	0	0	-0.0898473	-0.19866	0.155776	0.122963	-0.528865	0.938464	0.762643	0.749072	0	0	0.0103557	-0.437902	0.54086	0.817615	0.996021	0	0
0.21	-0.834284	1.36805	2.42039	0.842388	-0.846959	1.00471	0.597425	-0.265034	0.229759	1.51672	-0.456543	0	0	0.294813	0.173757	-0.161437	0.372857	-0.158502	0	0	-0.0885636	-0.19652	0.154816	0.125607	-0.525504	0.941853	0.759347	0.75167	0	0	0.0145435	-0.441232	0.551722	0.816689	0.988243	0	0
0.22	-0.823072	1.36955	2.41034	0.840799	-0.837243	1.00575	0.618557	-0.251372	0.239257	1.51514	-0.432094	0	0	0.280739	0.172598	-0.165675	0.366573	-0.156445	0	0	-0.0907016	-0.19429	0.153998	0.122408	-0.52471	0.927814	0.759509	0.760569	0	0	0.017293	-0.442163	0.552097	0.818144	0.994085	0	0
0.23	-0.810775	1.37084	2.39961	0.83918	-0.827563	1.00669	0.639015	-0.238554	0.247631	1.51021	-0.401338	0	0	0.266966	0.171382	-0.169271	0.359673	-0.154405	0	0	-0.0895865	-0.1914	0.151395	0.125955	-0.523114	0.932671	0.756531	0.756288	0	0	0.0197899	-0.444556	0.55859	0.818357	0.988583	0	0
0.24	-0.796094	1.3712	2.38717	0.837617	-0.818214	1.00754	0.66038	-0.22667	0.255364	1.5012	-0.375565	0	0	0.260629	0.167297	-0.183903	0.36625	-0.151487	0	0	-0.0880654	-0.188972	0.148497	0.129484	-0.52096	0.936284	0.753025	0.753897	0	0	0.0233113	-0.447124	0.565822	0.818275	0.982422	0	0
0.25	-1.28583	1.30512	2.77246	0.849148	-0.817736	1.00162	0.729546	-0.265854	0.424089	1.57981	-0.355646	0	0	0.177528	0.275565	-0.307031	0.303763	-0.170094	0	0	-0.132025	-0.321983	0.235864	0.164692	-0.566161	0.992104	0.840137	0.666394	0	0	0.0569482	-0.518701	0.63873	0.91223	0.904628	0	0
0.26	-0.784486	1.37854	2.37422	0.834937	-0.798979	1.00905	0.694379	-0.199712	0.269677	1.4732	-0.338445	0	0	0.219861	0.165933	-0.178525	0.334145	-0.147542	0	0	-0.0887903	-0.179947	0.150934	0.135924	-0.523482	0.949879	0.751787	0.736406	0	0	0.0330779	-0.451299	0.590399	0.81716	0.959125	0	0
0.27	-0.774008	1.3807	2.36604	0.833157	-0.78941	1.00956	0.711148	-0.190485	0.272501	1.45437	-0.329013	0	0	0.205757	0.164647	-0.180503	0.3287	-0.145288	0	0	-0.0902066	-0.176227	0.148045	0.137377	-0.523538	0.949291	0.751606	0.738697	0	0	0.0336742	-0.451063	0.588894	0.818369	0.961483	0	0
0.28	-0.743327	1.37571	2.33337	0.832433	-0.780968	1.0077	0.784108	-0.195711	0.320639	1.43411	-0.431907	0	0	0.202398	0.164415	-0.181039	0.325208	-0.136374	0	0	-0.0849809	-0.176553	0.167057	0.107444	-0.527553	0.887878	0.768601	0.779104	0	0	0.0537189	-0.455491	0.621237	0.820692	0.949329	0	0
0.29	-0.760851	1.37842	2.3499	0.830926	-0.771133	1.00884	0.793656	-0.190564	0.324555	1.40659	-0.418253	0	0	0.184751	0.16604	-0.191509	0.32238	-0.135763	0	0	-0.0869304	-0.175812	0.152043	0.138007	-0.526016	0.946807	0.757006	0.737764	0	0	0.0375524	-0.454792	0.593467	0.824607	0.958548	0	0
0.3	-0.762065	1.38874	2.35419	0.828933	-0.760929	1.01084	0.752439	-0.160505	0.280472	1.38483	-0.290781	0	0	0.159905	0.160875	-0.192929	0.312802	-0.135704	0	0	-0.0975136	-0.16666	0.150095	0.13845	-0.527749	0.942758	0.756453	0.740366	0	0	0.0425557	-0.449977	0.594842	0.819223	0.960163	0	0
0.31	-0.758925	1.39036	2.35321	0.827198	-0.751332	1.01083	0.765948	-0.155156	0.28177	1.36176	-0.278407	0	0	0.145682	0.161088	-0.194716	0.308739	-0.131985	0	0	-0.0990598	-0.16407	0.148986	0.137596	-0.529924	0.940088	0.759623	0.741369	0	0	0.0448886	-0.450082	0.597181	0.820299	0.959102	0	0
0.32	-0.751537	1.39057	2.35087	0.82504	-0.741671	1.01048	0.780262	-0.153899	0.28071	1.33981	-0.266944	0	0	0.133777	0.162303	-0.1932	0.30627	-0.128006	0	0	-0.0988667	-0.161678	0.145607	0.135224	-0.531976	0.936319	0.763087	0.743342	0	0	0.0468872	-0.450056	0.599559	0.820821	0.95781	0	0
0.33	-0.733619	1.37977	2.33781	0.82299	-0.732111	1.00772	0.846133	-0.181283	0.323968	1.29323	-0.370227	0	0	0.134002	0.16998	-0.191578	0.30798	-0.120753	0	0	-0.0856797	-0.166648	0.141493	0.1311	-0.533187	0.935915	0.768901	0.740878	0	0	0.0428583	-0.454756	0.599056	0.82764	0.956249	0	0
